<svg id="Capa_1" data-name="Capa 1" xmlns="http://www.w3.org/2000/svg" xmlns:xlink="http://www.w3.org/1999/xlink" viewBox="0 0 263.26 669.92"><defs><style>.cls-1{fill:url(#Degradado_sin_nombre_48);}</style><linearGradient id="Degradado_sin_nombre_48" x1="-4.17" y1="336.89" x2="269.89" y2="336.89" gradientTransform="matrix(1, 0.02, -0.02, 1, 6.2, -2.47)" gradientUnits="userSpaceOnUse"><stop offset="0.19" stop-color="#f0ab45"/><stop offset="0.87" stop-color="#dec508"/></linearGradient></defs><path class="cls-1" d="M60.48.33,84.84,19c24,18.64,73.28,55.94,63.14,93.1S70.11,186.27,50.19,223.41C30.63,260.55,59.8,297.8,98.74,335.08c38.59,37.27,87.86,74.57,102.13,111.78,14.81,37.22-5.38,74.36-.26,111.56,4.76,37.19,33.93,74.44,48.51,93.07l14.58,18.62L.44,669.51l0-18.59L.7,558,1,446.41l.26-111.56L1.47,223.3l.25-111.55.21-93L2,.2Z" transform="translate(-0.44 -0.2)"/></svg>