<?xml version="1.0" standalone="no"?><svg xmlns="http://www.w3.org/2000/svg" viewBox="0 0 1440 320"><path fill="#ffd700" fill-opacity="1" d="M0,256L40,229.3C80,203,160,149,240,160C320,171,400,245,480,266.7C560,288,640,256,720,213.3C800,171,880,117,960,101.3C1040,85,1120,107,1200,101.3C1280,96,1360,64,1400,48L1440,32L1440,320L1400,320C1360,320,1280,320,1200,320C1120,320,1040,320,960,320C880,320,800,320,720,320C640,320,560,320,480,320C400,320,320,320,240,320C160,320,80,320,40,320L0,320Z"></path></svg>